<svg xmlns="http://www.w3.org/2000/svg" xmlns:xlink="http://www.w3.org/1999/xlink" viewBox="0 0 67.41 66.5"><defs><style>.cls-1{fill:#17231a;}.cls-2{fill:url(#linear-gradient);}</style><linearGradient id="linear-gradient" x1="12.68" y1="31.36" x2="56.74" y2="31.36" gradientUnits="userSpaceOnUse"><stop offset="0.01" stop-color="#a3d5ac"/><stop offset="1" stop-color="#0b9455"/></linearGradient></defs><g id="Layer_2" data-name="Layer 2"><g id="Layer_2-2" data-name="Layer 2"><rect class="cls-1" width="67.41" height="66.5" rx="6.42"/></g><g id="Layer_1-2" data-name="Layer 1"><path class="cls-2" d="M53.92,41.07a2.72,2.72,0,1,0,2.82,2.61A2.72,2.72,0,0,0,53.92,41.07ZM47.5,36.71a7.54,7.54,0,0,0-4.18-2.09l-2.42-.48c-.95-.17-1.43-.62-1.43-1.36a1.37,1.37,0,0,1,.59-1.13,2.26,2.26,0,0,1,1.39-.44,2.55,2.55,0,0,1,1.86.63,2.44,2.44,0,0,1,.43.57l0,0c.05.1.09.21.14.31a.51.51,0,0,0,.07.15,2.2,2.2,0,0,0,.17.25,2.33,2.33,0,0,0,3.42.3,2.36,2.36,0,0,0,.77-1.74,2.43,2.43,0,0,0-.27-1.11l-.13-.21a7.23,7.23,0,0,0-1.21-1.51,7.45,7.45,0,0,0-5.34-1.7,7.33,7.33,0,0,0-5,1.76,5.51,5.51,0,0,0-2,4.29,5.16,5.16,0,0,0,1.33,3.54,7.41,7.41,0,0,0,4.1,2.07l2.1.48c1.19.26,1.79.76,1.79,1.5a1.43,1.43,0,0,1-.55,1.12,2.42,2.42,0,0,1-1.58.45,2.82,2.82,0,0,1-2.07-.71l-.18-.19a2.59,2.59,0,0,0-.26-.8l-.14-.23a2.5,2.5,0,0,0-2.08-1.1,2.55,2.55,0,0,0-2.29,1.43,2.62,2.62,0,0,0-.23,1.08,1.72,1.72,0,0,0,0,.33.29.29,0,0,0,0,.09,1.29,1.29,0,0,0,.06.25.32.32,0,0,0,0,.08h0a.08.08,0,0,1,0,0,2.3,2.3,0,0,1,.15.32l0,.09,0,.07a3.1,3.1,0,0,0,.18.26v0s0,0,0,0a5.94,5.94,0,0,0,.39.48c.14.17.31.28.47.46a5.69,5.69,0,0,0,2.38,1.52,9.9,9.9,0,0,0,3.57.59A7.44,7.44,0,0,0,47,44.68a5.76,5.76,0,0,0,1.9-4.34A5.17,5.17,0,0,0,47.5,36.71ZM29.25,16.21a2.78,2.78,0,0,0-1.94.8,2.73,2.73,0,0,0-.8,1.95l-.07,5.29c.07,2.19-.23,3.26-3.16,2.72a10.61,10.61,0,0,0-1.76-.13,8.26,8.26,0,0,0-6.34,2.7,9.58,9.58,0,0,0-2.5,6.8,9.54,9.54,0,0,0,2.57,6.87c.1.11.21.23.32.33s0,0,0,0a8.57,8.57,0,0,0,6.11,2.35,6.9,6.9,0,0,0,2.92-.6,4.8,4.8,0,0,0,1.95-1.54,0,0,0,0,1,0,0v.1a.62.62,0,0,0,0,.13,2.67,2.67,0,0,0,5.34-.13L32,19A2.75,2.75,0,0,0,29.25,16.21ZM25.32,39.73a4.17,4.17,0,0,1-5.83,0,4.51,4.51,0,0,1-1.2-3.36A4.44,4.44,0,0,1,19.49,33a4.19,4.19,0,0,1,5.83,0,4.47,4.47,0,0,1,1.19,3.33A4.55,4.55,0,0,1,25.32,39.73Z"/><path class="cls-1" d="M26.82,36.37A4.9,4.9,0,0,1,25.54,40a4.49,4.49,0,0,1-6.28,0A4.87,4.87,0,0,1,18,36.37a4.77,4.77,0,0,1,1.29-3.58,4.52,4.52,0,0,1,6.28,0A4.81,4.81,0,0,1,26.82,36.37Z"/></g></g></svg>